<svg xmlns="http://www.w3.org/2000/svg" xmlns:xlink="http://www.w3.org/1999/xlink" x="0px" y="0px"
     viewBox="0 0 408.3 49.8" style="enable-background:new 0 0 408.3 49.8;" xml:space="preserve">
<style type="text/css">
	.st0{fill:#D41467;}
</style>
    <g id="Claim_1_">
	<text id="Claim_TYPO" transform="matrix(1 0 0 1 217.879 81.237)" style="display:none;"><tspan x="0" y="0" style="display:inline; font-family:'FrutigerLT-Light'; font-size:20.1231px; letter-spacing:1;">connect</tspan>
        <tspan x="77.4" y="0" style="display:inline; font-family:'FrutigerLT-Light'; font-size:20.1231px;"> </tspan>
        <tspan x="83.9" y="0"
               style="display:inline; font-family:'FrutigerLT-Light'; font-size:20.1231px; letter-spacing:1;">your</tspan>
        <tspan x="127.1" y="0" style="display:inline; font-family:'FrutigerLT-Light'; font-size:20.1231px;"> </tspan>
        <tspan x="133.6" y="0"
               style="display:inline; font-family:'FrutigerLT-Light'; font-size:20.1231px; letter-spacing:1;">brand</tspan></text>
</g>
    <g id="MEDIAHAUS">
	<path class="st0"
          d="M405.8,3.3c-1.7-0.9-3.7-1.6-6.1-2.2c-2.3-0.6-4.6-0.9-6.9-0.9c-2.6,0-4.9,0.6-6.9,1.5c-2,1-3.6,2.3-4.8,4   c-1.2,1.7-1.8,3.7-1.8,6c0,1.9,0.4,3.4,1.1,4.7c0.7,1.3,1.8,2.4,3,3.4c1.3,0.9,2.7,1.7,4.2,2.4c1.5,0.7,3.1,1.3,4.6,1.9   c2,0.7,3.9,1.5,5.6,2.4c1.8,0.9,3.2,2.1,4.3,3.5c1.1,1.4,1.7,3.3,1.7,5.6c0,2.4-0.6,4.4-1.8,5.9c-1.2,1.6-2.7,2.7-4.5,3.5   c-1.8,0.8-3.7,1.2-5.7,1.2c-1.7,0-3.3-0.2-5-0.7c-1.7-0.5-3.2-1.1-4.6-1.8c-1.4-0.7-2.6-1.4-3.6-2.2l-1.6,2.7c0.9,0.5,2,1.2,3.5,2   c1.5,0.8,3.2,1.5,5.2,2.1c2,0.6,4.1,0.9,6.5,0.9c3,0,5.6-0.6,7.9-1.7c2.3-1.1,4-2.7,5.3-4.8c1.3-2.1,1.9-4.4,1.9-7.1   c0-2.3-0.4-4.2-1.1-5.7c-0.7-1.5-1.8-2.8-3-3.9c-1.3-1-2.7-1.9-4.2-2.6c-1.6-0.7-3.1-1.4-4.7-2c-2-0.8-3.9-1.6-5.6-2.4   c-1.8-0.8-3.2-1.9-4.3-3.1c-1.1-1.2-1.6-2.7-1.6-4.5c0-2.4,1-4.4,2.9-6c1.9-1.6,4.4-2.4,7.6-2.4c2,0,4.1,0.3,6.1,0.9   c2,0.6,3.8,1.2,5.2,1.9L405.8,3.3z"/>
        <path class="st0"
              d="M335.9,0.2h-3.3v32.3c0,3.5,0.7,6.5,2.2,9c1.5,2.5,3.4,4.4,6,5.7c2.5,1.3,5.4,2,8.5,2s6-0.7,8.5-2   c2.5-1.3,4.5-3.2,6-5.7s2.2-5.5,2.2-9V0.2h-3.3v32.1c0,2.8-0.6,5.3-1.7,7.3c-1.2,2-2.8,3.6-4.8,4.7c-2,1.1-4.3,1.7-6.9,1.7   c-2.5,0-4.8-0.6-6.8-1.7c-2-1.1-3.6-2.7-4.7-4.7c-1.2-2-1.7-4.5-1.7-7.3V0.2z"/>
        <path class="st0"
              d="M301.5,7.6l8.8,21.4h-17.9L301.5,7.6z M280.9,48.6h3.3l6.9-16.5h20.5l6.7,16.5h3.8L301.5,0.2L280.9,48.6z"/>
        <polygon class="st0"
                 points="266.3,0.2 266.3,22.7 237.1,22.7 237.1,0.2 233.8,0.2 233.8,48.6 237.1,48.6 237.1,25.9 266.3,25.9    266.3,48.6 269.7,48.6 269.7,0.2  "/>
        <path id="Mouse" class="st0"
              d="M200.9,9.5l12.4,27.7l-12.4-7.8l-12.4,7.8L200.9,9.5z M205.2,0.2h-4.3h0h-4.3h-0.1l-22,48.5h7.1   l1.2,0l18.1-11.1l18.1,11.1l1.2,0h7.1L205.2,0.2L205.2,0.2z"/>
        <rect id="I" x="158.2" y="0.2" class="st0" width="9.5" height="48.5"/>
        <path id="D" class="st0"
              d="M139.1,24.6c0,2.4-0.4,4.6-1.2,6.4c-0.8,1.9-1.9,3.4-3.3,4.6c-1.4,1.2-3.1,2.2-5.1,2.8   c-2,0.6-4.2,1-6.6,1h-5.7V9.3h7.8c1.1,0,2.4,0.2,4,0.6c1.6,0.4,3.1,1.2,4.6,2.3c1.5,1.1,2.8,2.6,3.8,4.6   C138.6,18.9,139.1,21.5,139.1,24.6 M149,25.3c0-3-0.5-6-1.4-9c-1-3-2.5-5.7-4.6-8.1c-2.1-2.4-4.8-4.3-8.3-5.8   c-3.4-1.4-7.6-2.2-12.4-2.2h-14.5v48.5h16.9c3.3,0,6.4-0.5,9.3-1.6c2.9-1.1,5.5-2.6,7.8-4.7c2.2-2,4-4.5,5.3-7.4   C148.3,32.1,149,28.9,149,25.3"/>
        <polygon id="E" class="st0"
                 points="62.6,0.2 62.6,48.7 96.6,48.7 96.6,39.4 72.1,39.4 72.1,29 92.9,29 92.9,19.7 72.1,19.7    72.1,9.4 96.6,9.4 96.6,0.2  "/>
        <polygon id="M" class="st0"
                 points="0.3,0 0.3,48.7 9.8,48.7 9.8,18.4 26,28.4 42.2,18.4 42.2,48.7 51.7,48.7 51.7,0 26,15.8  "/>
</g>
</svg>